<svg width="411" height="132" viewBox="0 0 411 132" fill="none" xmlns="http://www.w3.org/2000/svg">
<rect width="410.667" height="132" rx="5" fill="#F7F7F7"/>
<rect x="16" y="16" width="100" height="100" rx="5" fill="white"/>
<path d="M64.3334 80.0001H67.6934C68.9734 80.0001 69.8 79.0934 69.56 77.9867L69.0133 75.5735H63.0133L62.4667 77.9867C62.2267 79.0267 63.1334 80.0001 64.3334 80.0001Z" stroke="#292D32" stroke-width="1.5" stroke-linecap="round" stroke-linejoin="round"/>
<path d="M69.0134 75.5602L71.3201 73.5069C72.6134 72.3602 72.6667 71.5601 71.6401 70.2668L67.5734 65.1069C66.7201 64.0269 65.3201 64.0269 64.4667 65.1069L60.4001 70.2668C59.3734 71.5601 59.3734 72.4002 60.7201 73.5069L63.0267 75.5602" stroke="#292D32" stroke-width="1.5" stroke-linecap="round" stroke-linejoin="round"/>
<path d="M66.0134 64.8269V68.2003" stroke="#292D32" stroke-width="1.5" stroke-linecap="round" stroke-linejoin="round"/>
<path d="M66.6933 56.6667H65.3599C64.6266 56.6667 64.0266 56.0667 64.0266 55.3334V54.0001C64.0266 53.2667 64.6266 52.6667 65.3599 52.6667H66.6933C67.4266 52.6667 68.0266 53.2667 68.0266 54.0001V55.3334C68.0266 56.0667 67.4266 56.6667 66.6933 56.6667Z" stroke="#292D32" stroke-width="1.5" stroke-linecap="round" stroke-linejoin="round"/>
<path d="M54.3599 68.8934H55.6933C56.4266 68.8934 57.0266 68.2934 57.0266 67.5601V66.2267C57.0266 65.4934 56.4266 64.8933 55.6933 64.8933H54.3599C53.6266 64.8933 53.0266 65.4934 53.0266 66.2267V67.5601C53.0266 68.2934 53.6266 68.8934 54.3599 68.8934Z" stroke="#292D32" stroke-width="1.5" stroke-linecap="round" stroke-linejoin="round"/>
<path d="M77.6401 68.8934H76.3067C75.5734 68.8934 74.9734 68.2934 74.9734 67.5601V66.2267C74.9734 65.4934 75.5734 64.8933 76.3067 64.8933H77.6401C78.3734 64.8933 78.9734 65.4934 78.9734 66.2267V67.5601C78.9734 68.2934 78.3734 68.8934 77.6401 68.8934Z" stroke="#292D32" stroke-width="1.5" stroke-linecap="round" stroke-linejoin="round"/>
<path d="M64.0267 54.7468C58.9467 55.3468 55 59.6535 55 64.8935" stroke="#292D32" stroke-width="1.5" stroke-linecap="round" stroke-linejoin="round"/>
<path d="M76.9999 64.8935C76.9999 59.6668 73.0799 55.3735 68.0266 54.7468" stroke="#292D32" stroke-width="1.5" stroke-linecap="round" stroke-linejoin="round"/>
<path d="M153.605 59.5H150.539L150.559 57.3906H153.605C154.432 57.3906 155.126 57.2083 155.686 56.8438C156.245 56.4727 156.669 55.9421 156.955 55.252C157.242 54.5553 157.385 53.722 157.385 52.752V52.0195C157.385 51.2708 157.303 50.61 157.141 50.0371C156.978 49.4642 156.737 48.9824 156.418 48.5918C156.105 48.2012 155.718 47.9049 155.256 47.7031C154.794 47.5013 154.263 47.4004 153.664 47.4004H150.48V45.2812H153.664C154.615 45.2812 155.48 45.4408 156.262 45.7598C157.049 46.0788 157.73 46.5378 158.303 47.1367C158.882 47.7292 159.325 48.4388 159.631 49.2656C159.943 50.0924 160.1 51.0169 160.1 52.0391V52.752C160.1 53.7676 159.943 54.6921 159.631 55.5254C159.325 56.3522 158.882 57.0618 158.303 57.6543C157.73 58.2467 157.046 58.7025 156.252 59.0215C155.458 59.3405 154.576 59.5 153.605 59.5ZM152.043 45.2812V59.5H149.357V45.2812H152.043ZM166.936 59.6953C166.135 59.6953 165.415 59.5651 164.777 59.3047C164.139 59.0443 163.596 58.6829 163.146 58.2207C162.704 57.752 162.362 57.2083 162.121 56.5898C161.887 55.9648 161.77 55.2943 161.77 54.5781V54.1875C161.77 53.3737 161.887 52.6348 162.121 51.9707C162.355 51.3001 162.688 50.724 163.117 50.2422C163.547 49.7604 164.061 49.3893 164.66 49.1289C165.259 48.8685 165.92 48.7383 166.643 48.7383C167.391 48.7383 168.052 48.8652 168.625 49.1191C169.198 49.3665 169.676 49.7181 170.061 50.1738C170.445 50.6296 170.734 51.1764 170.93 51.8145C171.125 52.446 171.223 53.1458 171.223 53.9141V54.998H162.941V53.2207H168.684V53.0254C168.671 52.6152 168.592 52.2409 168.449 51.9023C168.306 51.5573 168.085 51.2839 167.785 51.082C167.486 50.8737 167.098 50.7695 166.623 50.7695C166.239 50.7695 165.904 50.8542 165.617 51.0234C165.337 51.1862 165.103 51.4206 164.914 51.7266C164.732 52.026 164.595 52.3841 164.504 52.8008C164.413 53.2174 164.367 53.6797 164.367 54.1875V54.5781C164.367 55.0208 164.426 55.431 164.543 55.8086C164.667 56.1862 164.846 56.515 165.08 56.7949C165.321 57.0684 165.607 57.2832 165.939 57.4395C166.278 57.5892 166.662 57.6641 167.092 57.6641C167.632 57.6641 168.12 57.5599 168.557 57.3516C168.999 57.1367 169.383 56.821 169.709 56.4043L171.008 57.752C170.786 58.0775 170.487 58.39 170.109 58.6895C169.738 58.9889 169.289 59.2331 168.762 59.4219C168.234 59.6042 167.626 59.6953 166.936 59.6953ZM178.762 56.6094C178.762 56.388 178.703 56.1895 178.586 56.0137C178.469 55.8379 178.247 55.6784 177.922 55.5352C177.603 55.3854 177.134 55.2454 176.516 55.1152C175.969 54.998 175.464 54.8516 175.002 54.6758C174.54 54.5 174.143 54.2884 173.811 54.041C173.479 53.7871 173.218 53.4909 173.029 53.1523C172.847 52.8073 172.756 52.4102 172.756 51.9609C172.756 51.5247 172.85 51.1146 173.039 50.7305C173.228 50.3398 173.501 49.998 173.859 49.7051C174.217 49.4056 174.654 49.1712 175.168 49.002C175.682 48.8262 176.262 48.7383 176.906 48.7383C177.805 48.7383 178.576 48.8848 179.221 49.1777C179.872 49.4707 180.37 49.8743 180.715 50.3887C181.06 50.8965 181.232 51.4694 181.232 52.1074H178.654C178.654 51.8275 178.589 51.5736 178.459 51.3457C178.335 51.1178 178.143 50.9355 177.883 50.7988C177.622 50.6556 177.294 50.584 176.896 50.584C176.538 50.584 176.236 50.6426 175.988 50.7598C175.747 50.877 175.565 51.0299 175.441 51.2188C175.318 51.4076 175.256 51.6159 175.256 51.8438C175.256 52.013 175.288 52.166 175.354 52.3027C175.425 52.4329 175.539 52.5534 175.695 52.6641C175.852 52.7747 176.063 52.8757 176.33 52.9668C176.604 53.0579 176.939 53.1458 177.336 53.2305C178.124 53.3867 178.811 53.5951 179.396 53.8555C179.989 54.1094 180.451 54.4479 180.783 54.8711C181.115 55.2943 181.281 55.8346 181.281 56.4922C181.281 56.9609 181.18 57.3906 180.979 57.7812C180.777 58.1654 180.484 58.5007 180.1 58.7871C179.715 59.0736 179.257 59.2982 178.723 59.4609C178.189 59.6172 177.587 59.6953 176.916 59.6953C175.946 59.6953 175.126 59.5228 174.455 59.1777C173.785 58.8262 173.277 58.3835 172.932 57.8496C172.587 57.3092 172.414 56.7493 172.414 56.1699H174.885C174.904 56.5801 175.015 56.9089 175.217 57.1562C175.419 57.4036 175.673 57.5827 175.979 57.6934C176.291 57.7975 176.62 57.8496 176.965 57.8496C177.355 57.8496 177.684 57.7975 177.951 57.6934C178.218 57.5827 178.42 57.4362 178.557 57.2539C178.693 57.0651 178.762 56.8503 178.762 56.6094ZM185.979 48.9336V59.5H183.391V48.9336H185.979ZM183.215 46.1699C183.215 45.7858 183.345 45.4668 183.605 45.2129C183.872 44.959 184.23 44.832 184.68 44.832C185.129 44.832 185.484 44.959 185.744 45.2129C186.011 45.4668 186.145 45.7858 186.145 46.1699C186.145 46.5475 186.011 46.8633 185.744 47.1172C185.484 47.3711 185.129 47.498 184.68 47.498C184.23 47.498 183.872 47.3711 183.605 47.1172C183.345 46.8633 183.215 46.5475 183.215 46.1699ZM195.158 48.9336H197.502V59.1777C197.502 60.1348 197.294 60.9453 196.877 61.6094C196.467 62.2799 195.891 62.7878 195.148 63.1328C194.406 63.4844 193.544 63.6602 192.561 63.6602C192.137 63.6602 191.678 63.6016 191.184 63.4844C190.695 63.3672 190.223 63.1816 189.768 62.9277C189.318 62.6803 188.944 62.3581 188.645 61.9609L189.807 60.4375C190.158 60.8477 190.555 61.1569 190.998 61.3652C191.441 61.5801 191.919 61.6875 192.434 61.6875C192.954 61.6875 193.397 61.5898 193.762 61.3945C194.133 61.2057 194.416 60.9258 194.611 60.5547C194.813 60.1901 194.914 59.7409 194.914 59.207V51.3457L195.158 48.9336ZM188.02 54.3438V54.1387C188.02 53.3314 188.117 52.599 188.312 51.9414C188.508 51.2773 188.788 50.7077 189.152 50.2324C189.523 49.7572 189.969 49.3893 190.49 49.1289C191.018 48.8685 191.61 48.7383 192.268 48.7383C192.964 48.7383 193.55 48.8652 194.025 49.1191C194.507 49.373 194.904 49.7344 195.217 50.2031C195.536 50.6719 195.783 51.2285 195.959 51.873C196.141 52.5111 196.281 53.2142 196.379 53.9824V54.5391C196.288 55.2878 196.141 55.9746 195.939 56.5996C195.744 57.2246 195.484 57.7715 195.158 58.2402C194.833 58.7025 194.429 59.0605 193.947 59.3145C193.465 59.5684 192.899 59.6953 192.248 59.6953C191.597 59.6953 191.011 59.5618 190.49 59.2949C189.969 59.028 189.523 58.6536 189.152 58.1719C188.788 57.6901 188.508 57.1237 188.312 56.4727C188.117 55.8216 188.02 55.112 188.02 54.3438ZM190.598 54.1387V54.3438C190.598 54.7995 190.643 55.2259 190.734 55.623C190.826 56.0202 190.965 56.3717 191.154 56.6777C191.343 56.9772 191.581 57.2116 191.867 57.3809C192.154 57.5501 192.495 57.6348 192.893 57.6348C193.426 57.6348 193.863 57.5241 194.201 57.3027C194.546 57.0749 194.807 56.7656 194.982 56.375C195.165 55.9779 195.282 55.5319 195.334 55.0371V53.5039C195.301 53.1133 195.23 52.752 195.119 52.4199C195.015 52.0879 194.868 51.8014 194.68 51.5605C194.491 51.3197 194.25 51.1309 193.957 50.9941C193.664 50.8574 193.316 50.7891 192.912 50.7891C192.521 50.7891 192.18 50.877 191.887 51.0527C191.594 51.222 191.353 51.4596 191.164 51.7656C190.975 52.0716 190.832 52.4264 190.734 52.8301C190.643 53.2337 190.598 53.6699 190.598 54.1387ZM202.355 51.1895V59.5H199.777V48.9336H202.199L202.355 51.1895ZM201.945 53.8359H201.184C201.19 53.0677 201.294 52.3711 201.496 51.7461C201.698 51.1211 201.981 50.584 202.346 50.1348C202.717 49.6855 203.156 49.3405 203.664 49.0996C204.172 48.8587 204.738 48.7383 205.363 48.7383C205.871 48.7383 206.33 48.8099 206.74 48.9531C207.15 49.0964 207.502 49.3242 207.795 49.6367C208.094 49.9492 208.322 50.3594 208.479 50.8672C208.641 51.3685 208.723 51.987 208.723 52.7227V59.5H206.125V52.7031C206.125 52.2214 206.053 51.8405 205.91 51.5605C205.773 51.2806 205.572 51.082 205.305 50.9648C205.044 50.8477 204.722 50.7891 204.338 50.7891C203.941 50.7891 203.592 50.8704 203.293 51.0332C203 51.1895 202.753 51.4076 202.551 51.6875C202.355 51.9674 202.206 52.2897 202.102 52.6543C201.997 53.0189 201.945 53.4128 201.945 53.8359ZM218.303 51.8242L220.891 50.125C221.301 49.8516 221.584 49.5879 221.74 49.334C221.896 49.0801 221.975 48.7741 221.975 48.416C221.975 48.097 221.851 47.8008 221.604 47.5273C221.363 47.2474 221.021 47.1074 220.578 47.1074C220.266 47.1074 220.002 47.179 219.787 47.3223C219.572 47.4655 219.41 47.6576 219.299 47.8984C219.195 48.1328 219.143 48.3932 219.143 48.6797C219.143 48.9727 219.217 49.2721 219.367 49.5781C219.523 49.8841 219.732 50.2064 219.992 50.5449C220.259 50.877 220.555 51.2383 220.881 51.6289L227.59 59.5H224.641L219.152 53.1133C218.69 52.5404 218.28 52.013 217.922 51.5312C217.564 51.0495 217.284 50.584 217.082 50.1348C216.887 49.679 216.789 49.2103 216.789 48.7285C216.789 47.9863 216.945 47.3418 217.258 46.7949C217.57 46.248 218.01 45.8249 218.576 45.5254C219.149 45.2259 219.82 45.0762 220.588 45.0762C221.317 45.0762 221.945 45.2259 222.473 45.5254C223.007 45.8184 223.42 46.209 223.713 46.6973C224.006 47.1855 224.152 47.7194 224.152 48.2988C224.152 48.7415 224.071 49.1517 223.908 49.5293C223.745 49.9004 223.521 50.2422 223.234 50.5547C222.948 50.8607 222.616 51.1504 222.238 51.4238L219.191 53.6113C218.898 53.8587 218.677 54.1029 218.527 54.3438C218.384 54.5781 218.286 54.7962 218.234 54.998C218.189 55.1999 218.166 55.3887 218.166 55.5645C218.166 55.9616 218.251 56.3197 218.42 56.6387C218.596 56.9512 218.843 57.2018 219.162 57.3906C219.488 57.5729 219.872 57.6641 220.314 57.6641C220.855 57.6641 221.376 57.5436 221.877 57.3027C222.378 57.0618 222.827 56.7201 223.225 56.2773C223.628 55.8346 223.947 55.3073 224.182 54.6953C224.423 54.0768 224.543 53.3965 224.543 52.6543H226.75C226.75 53.3639 226.682 54.0378 226.545 54.6758C226.408 55.3073 226.187 55.8932 225.881 56.4336C225.575 56.974 225.174 57.4557 224.68 57.8789C224.634 57.918 224.579 57.9701 224.514 58.0352C224.455 58.1003 224.403 58.1523 224.357 58.1914C223.765 58.6992 223.124 59.0801 222.434 59.334C221.75 59.5814 221.005 59.7051 220.197 59.7051C219.247 59.7051 218.426 59.5326 217.736 59.1875C217.046 58.8424 216.512 58.3672 216.135 57.7617C215.764 57.1562 215.578 56.4629 215.578 55.6816C215.578 55.1022 215.692 54.5977 215.92 54.168C216.154 53.7318 216.477 53.3281 216.887 52.957C217.297 52.5794 217.769 52.2018 218.303 51.8242ZM238.391 59.5H235.324L235.344 57.3906H238.391C239.217 57.3906 239.911 57.2083 240.471 56.8438C241.031 56.4727 241.454 55.9421 241.74 55.252C242.027 54.5553 242.17 53.722 242.17 52.752V52.0195C242.17 51.2708 242.089 50.61 241.926 50.0371C241.763 49.4642 241.522 48.9824 241.203 48.5918C240.891 48.2012 240.503 47.9049 240.041 47.7031C239.579 47.5013 239.048 47.4004 238.449 47.4004H235.266V45.2812H238.449C239.4 45.2812 240.266 45.4408 241.047 45.7598C241.835 46.0788 242.515 46.5378 243.088 47.1367C243.667 47.7292 244.11 48.4388 244.416 49.2656C244.729 50.0924 244.885 51.0169 244.885 52.0391V52.752C244.885 53.7676 244.729 54.6921 244.416 55.5254C244.11 56.3522 243.667 57.0618 243.088 57.6543C242.515 58.2467 241.831 58.7025 241.037 59.0215C240.243 59.3405 239.361 59.5 238.391 59.5ZM236.828 45.2812V59.5H234.143V45.2812H236.828ZM251.721 59.6953C250.92 59.6953 250.201 59.5651 249.562 59.3047C248.924 59.0443 248.381 58.6829 247.932 58.2207C247.489 57.752 247.147 57.2083 246.906 56.5898C246.672 55.9648 246.555 55.2943 246.555 54.5781V54.1875C246.555 53.3737 246.672 52.6348 246.906 51.9707C247.141 51.3001 247.473 50.724 247.902 50.2422C248.332 49.7604 248.846 49.3893 249.445 49.1289C250.044 48.8685 250.705 48.7383 251.428 48.7383C252.176 48.7383 252.837 48.8652 253.41 49.1191C253.983 49.3665 254.462 49.7181 254.846 50.1738C255.23 50.6296 255.52 51.1764 255.715 51.8145C255.91 52.446 256.008 53.1458 256.008 53.9141V54.998H247.727V53.2207H253.469V53.0254C253.456 52.6152 253.378 52.2409 253.234 51.9023C253.091 51.5573 252.87 51.2839 252.57 51.082C252.271 50.8737 251.883 50.7695 251.408 50.7695C251.024 50.7695 250.689 50.8542 250.402 51.0234C250.122 51.1862 249.888 51.4206 249.699 51.7266C249.517 52.026 249.38 52.3841 249.289 52.8008C249.198 53.2174 249.152 53.6797 249.152 54.1875V54.5781C249.152 55.0208 249.211 55.431 249.328 55.8086C249.452 56.1862 249.631 56.515 249.865 56.7949C250.106 57.0684 250.393 57.2832 250.725 57.4395C251.063 57.5892 251.447 57.6641 251.877 57.6641C252.417 57.6641 252.906 57.5599 253.342 57.3516C253.785 57.1367 254.169 56.821 254.494 56.4043L255.793 57.752C255.572 58.0775 255.272 58.39 254.895 58.6895C254.523 58.9889 254.074 59.2331 253.547 59.4219C253.02 59.6042 252.411 59.6953 251.721 59.6953ZM261.105 57.5469L263.566 48.9336H266.262L262.639 59.5H260.998L261.105 57.5469ZM259.309 48.9336L261.799 57.5664L261.887 59.5H260.236L256.604 48.9336H259.309ZM272.229 59.6953C271.428 59.6953 270.708 59.5651 270.07 59.3047C269.432 59.0443 268.889 58.6829 268.439 58.2207C267.997 57.752 267.655 57.2083 267.414 56.5898C267.18 55.9648 267.062 55.2943 267.062 54.5781V54.1875C267.062 53.3737 267.18 52.6348 267.414 51.9707C267.648 51.3001 267.98 50.724 268.41 50.2422C268.84 49.7604 269.354 49.3893 269.953 49.1289C270.552 48.8685 271.213 48.7383 271.936 48.7383C272.684 48.7383 273.345 48.8652 273.918 49.1191C274.491 49.3665 274.969 49.7181 275.354 50.1738C275.738 50.6296 276.027 51.1764 276.223 51.8145C276.418 52.446 276.516 53.1458 276.516 53.9141V54.998H268.234V53.2207H273.977V53.0254C273.964 52.6152 273.885 52.2409 273.742 51.9023C273.599 51.5573 273.378 51.2839 273.078 51.082C272.779 50.8737 272.391 50.7695 271.916 50.7695C271.532 50.7695 271.197 50.8542 270.91 51.0234C270.63 51.1862 270.396 51.4206 270.207 51.7266C270.025 52.026 269.888 52.3841 269.797 52.8008C269.706 53.2174 269.66 53.6797 269.66 54.1875V54.5781C269.66 55.0208 269.719 55.431 269.836 55.8086C269.96 56.1862 270.139 56.515 270.373 56.7949C270.614 57.0684 270.9 57.2832 271.232 57.4395C271.571 57.5892 271.955 57.6641 272.385 57.6641C272.925 57.6641 273.413 57.5599 273.85 57.3516C274.292 57.1367 274.676 56.821 275.002 56.4043L276.301 57.752C276.079 58.0775 275.78 58.39 275.402 58.6895C275.031 58.9889 274.582 59.2331 274.055 59.4219C273.527 59.6042 272.919 59.6953 272.229 59.6953ZM280.979 44.5V59.5H278.391V44.5H280.979ZM282.98 54.3242V54.1191C282.98 53.3444 283.091 52.6315 283.312 51.9805C283.534 51.3229 283.856 50.7533 284.279 50.2715C284.702 49.7897 285.22 49.4154 285.832 49.1484C286.444 48.875 287.141 48.7383 287.922 48.7383C288.716 48.7383 289.419 48.875 290.031 49.1484C290.65 49.4154 291.171 49.7897 291.594 50.2715C292.017 50.7533 292.339 51.3229 292.561 51.9805C292.782 52.6315 292.893 53.3444 292.893 54.1191V54.3242C292.893 55.0924 292.782 55.8053 292.561 56.4629C292.339 57.1139 292.017 57.6836 291.594 58.1719C291.171 58.6536 290.653 59.028 290.041 59.2949C289.429 59.5618 288.729 59.6953 287.941 59.6953C287.16 59.6953 286.46 59.5618 285.842 59.2949C285.223 59.028 284.702 58.6536 284.279 58.1719C283.856 57.6836 283.534 57.1139 283.312 56.4629C283.091 55.8053 282.98 55.0924 282.98 54.3242ZM285.559 54.1191V54.3242C285.559 54.7865 285.604 55.2194 285.695 55.623C285.786 56.0267 285.926 56.3815 286.115 56.6875C286.304 56.9935 286.548 57.2344 286.848 57.4102C287.154 57.5794 287.518 57.6641 287.941 57.6641C288.358 57.6641 288.716 57.5794 289.016 57.4102C289.315 57.2344 289.559 56.9935 289.748 56.6875C289.943 56.3815 290.087 56.0267 290.178 55.623C290.269 55.2194 290.314 54.7865 290.314 54.3242V54.1191C290.314 53.6634 290.269 53.237 290.178 52.8398C290.087 52.4362 289.943 52.0814 289.748 51.7754C289.559 51.4629 289.312 51.2188 289.006 51.043C288.706 50.8607 288.345 50.7695 287.922 50.7695C287.505 50.7695 287.147 50.8607 286.848 51.043C286.548 51.2188 286.304 51.4629 286.115 51.7754C285.926 52.0814 285.786 52.4362 285.695 52.8398C285.604 53.237 285.559 53.6634 285.559 54.1191ZM297.346 50.9648V63.5625H294.758V48.9336H297.15L297.346 50.9648ZM304.133 54.1094V54.3145C304.133 55.0827 304.042 55.7956 303.859 56.4531C303.684 57.1042 303.423 57.6738 303.078 58.1621C302.733 58.6439 302.303 59.0215 301.789 59.2949C301.281 59.5618 300.695 59.6953 300.031 59.6953C299.38 59.6953 298.814 59.5716 298.332 59.3242C297.85 59.0703 297.443 58.7122 297.111 58.25C296.779 57.7878 296.512 57.2507 296.311 56.6387C296.115 56.0202 295.969 55.3464 295.871 54.6172V53.9629C295.969 53.1882 296.115 52.485 296.311 51.8535C296.512 51.2155 296.779 50.6654 297.111 50.2031C297.443 49.7344 297.847 49.373 298.322 49.1191C298.804 48.8652 299.367 48.7383 300.012 48.7383C300.682 48.7383 301.271 48.8652 301.779 49.1191C302.294 49.373 302.727 49.7376 303.078 50.2129C303.43 50.6882 303.693 51.2546 303.869 51.9121C304.045 52.5697 304.133 53.3021 304.133 54.1094ZM301.545 54.3145V54.1094C301.545 53.6406 301.503 53.2077 301.418 52.8105C301.333 52.4069 301.203 52.0553 301.027 51.7559C300.852 51.4499 300.624 51.2122 300.344 51.043C300.064 50.8737 299.725 50.7891 299.328 50.7891C298.931 50.7891 298.589 50.8542 298.303 50.9844C298.016 51.1146 297.782 51.3001 297.6 51.541C297.417 51.7819 297.274 52.0684 297.17 52.4004C297.072 52.7259 297.007 53.0872 296.975 53.4844V55.1055C297.033 55.5872 297.147 56.0202 297.316 56.4043C297.486 56.7884 297.733 57.0944 298.059 57.3223C298.391 57.5501 298.82 57.6641 299.348 57.6641C299.745 57.6641 300.083 57.5762 300.363 57.4004C300.643 57.2246 300.871 56.9837 301.047 56.6777C301.223 56.3652 301.35 56.0072 301.428 55.6035C301.506 55.1999 301.545 54.7702 301.545 54.3145ZM308.586 51.1016V59.5H306.008V48.9336H308.439L308.586 51.1016ZM308.205 53.8359H307.414C307.414 53.1003 307.502 52.4232 307.678 51.8047C307.86 51.1862 308.127 50.6491 308.479 50.1934C308.83 49.7311 309.263 49.373 309.777 49.1191C310.298 48.8652 310.9 48.7383 311.584 48.7383C312.059 48.7383 312.495 48.8099 312.893 48.9531C313.29 49.0898 313.632 49.3079 313.918 49.6074C314.211 49.9004 314.436 50.2845 314.592 50.7598C314.748 51.2285 314.826 51.7917 314.826 52.4492V59.5H312.248V52.7129C312.248 52.2181 312.176 51.8307 312.033 51.5508C311.896 51.2708 311.698 51.0755 311.438 50.9648C311.177 50.8477 310.865 50.7891 310.5 50.7891C310.096 50.7891 309.748 50.8704 309.455 51.0332C309.169 51.1895 308.931 51.4076 308.742 51.6875C308.56 51.9674 308.423 52.2897 308.332 52.6543C308.247 53.0189 308.205 53.4128 308.205 53.8359ZM314.631 53.3574L313.566 53.5527C313.573 52.8887 313.664 52.2669 313.84 51.6875C314.016 51.1016 314.273 50.5905 314.611 50.1543C314.956 49.7116 315.383 49.3665 315.891 49.1191C316.405 48.8652 316.997 48.7383 317.668 48.7383C318.189 48.7383 318.658 48.8132 319.074 48.9629C319.497 49.1061 319.859 49.3372 320.158 49.6562C320.458 49.9688 320.686 50.3757 320.842 50.877C321.005 51.3783 321.086 51.9902 321.086 52.7129V59.5H318.488V52.7031C318.488 52.1888 318.417 51.7949 318.273 51.5215C318.137 51.248 317.938 51.0592 317.678 50.9551C317.417 50.8444 317.111 50.7891 316.76 50.7891C316.402 50.7891 316.089 50.8574 315.822 50.9941C315.562 51.1243 315.34 51.3066 315.158 51.541C314.982 51.7754 314.849 52.0488 314.758 52.3613C314.673 52.6673 314.631 52.9993 314.631 53.3574ZM328.146 59.6953C327.346 59.6953 326.626 59.5651 325.988 59.3047C325.35 59.0443 324.807 58.6829 324.357 58.2207C323.915 57.752 323.573 57.2083 323.332 56.5898C323.098 55.9648 322.98 55.2943 322.98 54.5781V54.1875C322.98 53.3737 323.098 52.6348 323.332 51.9707C323.566 51.3001 323.898 50.724 324.328 50.2422C324.758 49.7604 325.272 49.3893 325.871 49.1289C326.47 48.8685 327.131 48.7383 327.854 48.7383C328.602 48.7383 329.263 48.8652 329.836 49.1191C330.409 49.3665 330.887 49.7181 331.271 50.1738C331.656 50.6296 331.945 51.1764 332.141 51.8145C332.336 52.446 332.434 53.1458 332.434 53.9141V54.998H324.152V53.2207H329.895V53.0254C329.882 52.6152 329.803 52.2409 329.66 51.9023C329.517 51.5573 329.296 51.2839 328.996 51.082C328.697 50.8737 328.309 50.7695 327.834 50.7695C327.45 50.7695 327.115 50.8542 326.828 51.0234C326.548 51.1862 326.314 51.4206 326.125 51.7266C325.943 52.026 325.806 52.3841 325.715 52.8008C325.624 53.2174 325.578 53.6797 325.578 54.1875V54.5781C325.578 55.0208 325.637 55.431 325.754 55.8086C325.878 56.1862 326.057 56.515 326.291 56.7949C326.532 57.0684 326.818 57.2832 327.15 57.4395C327.489 57.5892 327.873 57.6641 328.303 57.6641C328.843 57.6641 329.331 57.5599 329.768 57.3516C330.21 57.1367 330.594 56.821 330.92 56.4043L332.219 57.752C331.997 58.0775 331.698 58.39 331.32 58.6895C330.949 58.9889 330.5 59.2331 329.973 59.4219C329.445 59.6042 328.837 59.6953 328.146 59.6953ZM336.691 51.1895V59.5H334.113V48.9336H336.535L336.691 51.1895ZM336.281 53.8359H335.52C335.526 53.0677 335.63 52.3711 335.832 51.7461C336.034 51.1211 336.317 50.584 336.682 50.1348C337.053 49.6855 337.492 49.3405 338 49.0996C338.508 48.8587 339.074 48.7383 339.699 48.7383C340.207 48.7383 340.666 48.8099 341.076 48.9531C341.486 49.0964 341.838 49.3242 342.131 49.6367C342.43 49.9492 342.658 50.3594 342.814 50.8672C342.977 51.3685 343.059 51.987 343.059 52.7227V59.5H340.461V52.7031C340.461 52.2214 340.389 51.8405 340.246 51.5605C340.109 51.2806 339.908 51.082 339.641 50.9648C339.38 50.8477 339.058 50.7891 338.674 50.7891C338.277 50.7891 337.928 50.8704 337.629 51.0332C337.336 51.1895 337.089 51.4076 336.887 51.6875C336.691 51.9674 336.542 52.2897 336.438 52.6543C336.333 53.0189 336.281 53.4128 336.281 53.8359ZM350.334 48.9336V50.7891H344.279V48.9336H350.334ZM345.9 46.3359H348.488V56.4531C348.488 56.7656 348.531 57.0065 348.615 57.1758C348.7 57.3451 348.827 57.459 348.996 57.5176C349.165 57.5762 349.367 57.6055 349.602 57.6055C349.771 57.6055 349.927 57.5957 350.07 57.5762C350.214 57.5566 350.334 57.5371 350.432 57.5176L350.441 59.4512C350.227 59.5228 349.982 59.5814 349.709 59.627C349.442 59.6725 349.139 59.6953 348.801 59.6953C348.221 59.6953 347.714 59.5977 347.277 59.4023C346.841 59.2005 346.503 58.8783 346.262 58.4355C346.021 57.9863 345.9 57.3939 345.9 56.6582V46.3359Z" fill="black"/>
<path d="M151.12 81.4092L149.819 81.0752L150.461 74.7031H157.026V76.2061H151.841L151.454 79.6865C151.688 79.5518 151.984 79.4258 152.342 79.3086C152.705 79.1914 153.121 79.1328 153.59 79.1328C154.182 79.1328 154.712 79.2354 155.181 79.4404C155.649 79.6396 156.048 79.9268 156.376 80.3018C156.71 80.6768 156.965 81.1279 157.141 81.6553C157.316 82.1826 157.404 82.7715 157.404 83.4219C157.404 84.0371 157.319 84.6025 157.149 85.1182C156.985 85.6338 156.736 86.085 156.402 86.4717C156.068 86.8525 155.646 87.1484 155.137 87.3594C154.633 87.5703 154.038 87.6758 153.353 87.6758C152.837 87.6758 152.348 87.6055 151.885 87.4648C151.428 87.3184 151.018 87.0986 150.654 86.8057C150.297 86.5068 150.004 86.1377 149.775 85.6982C149.553 85.2529 149.412 84.7314 149.354 84.1338H150.9C150.971 84.6143 151.111 85.0186 151.322 85.3467C151.533 85.6748 151.809 85.9238 152.148 86.0938C152.494 86.2578 152.896 86.3398 153.353 86.3398C153.739 86.3398 154.082 86.2725 154.381 86.1377C154.68 86.0029 154.932 85.8096 155.137 85.5576C155.342 85.3057 155.497 85.001 155.603 84.6436C155.714 84.2861 155.77 83.8848 155.77 83.4395C155.77 83.0352 155.714 82.6602 155.603 82.3145C155.491 81.9688 155.324 81.667 155.102 81.4092C154.885 81.1514 154.618 80.9521 154.302 80.8115C153.985 80.665 153.622 80.5918 153.212 80.5918C152.667 80.5918 152.254 80.665 151.973 80.8115C151.697 80.958 151.413 81.1572 151.12 81.4092ZM167.222 80.082V82.0332C167.222 83.082 167.128 83.9668 166.94 84.6875C166.753 85.4082 166.483 85.9883 166.132 86.4277C165.78 86.8672 165.355 87.1865 164.857 87.3857C164.365 87.5791 163.809 87.6758 163.188 87.6758C162.695 87.6758 162.241 87.6143 161.825 87.4912C161.409 87.3682 161.034 87.1719 160.7 86.9023C160.372 86.627 160.091 86.2695 159.856 85.8301C159.622 85.3906 159.443 84.8574 159.32 84.2305C159.197 83.6035 159.136 82.8711 159.136 82.0332V80.082C159.136 79.0332 159.229 78.1543 159.417 77.4453C159.61 76.7363 159.883 76.168 160.234 75.7402C160.586 75.3066 161.008 74.9961 161.5 74.8086C161.998 74.6211 162.555 74.5273 163.17 74.5273C163.668 74.5273 164.125 74.5889 164.541 74.7119C164.963 74.8291 165.338 75.0195 165.666 75.2832C165.994 75.541 166.272 75.8867 166.501 76.3203C166.735 76.748 166.914 77.2725 167.037 77.8936C167.16 78.5146 167.222 79.2441 167.222 80.082ZM165.587 82.2969V79.8096C165.587 79.2354 165.552 78.7314 165.481 78.2979C165.417 77.8584 165.32 77.4834 165.191 77.1729C165.062 76.8623 164.898 76.6104 164.699 76.417C164.506 76.2236 164.28 76.083 164.022 75.9951C163.771 75.9014 163.486 75.8545 163.17 75.8545C162.783 75.8545 162.44 75.9277 162.142 76.0742C161.843 76.2148 161.591 76.4404 161.386 76.751C161.187 77.0615 161.034 77.4688 160.929 77.9727C160.823 78.4766 160.771 79.0889 160.771 79.8096V82.2969C160.771 82.8711 160.803 83.3779 160.867 83.8174C160.938 84.2568 161.04 84.6377 161.175 84.96C161.31 85.2764 161.474 85.5371 161.667 85.7422C161.86 85.9473 162.083 86.0996 162.335 86.1992C162.593 86.293 162.877 86.3398 163.188 86.3398C163.586 86.3398 163.935 86.2637 164.233 86.1113C164.532 85.959 164.781 85.7217 164.98 85.3994C165.186 85.0713 165.338 84.6523 165.438 84.1426C165.537 83.627 165.587 83.0117 165.587 82.2969ZM177.707 80.6357V82.165H168.936V80.6357H177.707ZM174.139 76.9004V86.2168H172.513V76.9004H174.139ZM192.139 83.4307H193.826C193.738 84.2393 193.507 84.9629 193.132 85.6016C192.757 86.2402 192.227 86.7471 191.541 87.1221C190.855 87.4912 190 87.6758 188.975 87.6758C188.225 87.6758 187.542 87.5352 186.927 87.2539C186.317 86.9727 185.793 86.5742 185.354 86.0586C184.914 85.5371 184.574 84.9131 184.334 84.1865C184.1 83.4541 183.982 82.6396 183.982 81.7432V80.4688C183.982 79.5723 184.1 78.7607 184.334 78.0342C184.574 77.3018 184.917 76.6748 185.362 76.1533C185.813 75.6318 186.355 75.2305 186.988 74.9492C187.621 74.668 188.333 74.5273 189.124 74.5273C190.091 74.5273 190.908 74.709 191.576 75.0723C192.244 75.4355 192.763 75.9395 193.132 76.584C193.507 77.2227 193.738 77.9639 193.826 78.8076H192.139C192.057 78.21 191.904 77.6973 191.682 77.2695C191.459 76.8359 191.143 76.502 190.732 76.2676C190.322 76.0332 189.786 75.916 189.124 75.916C188.556 75.916 188.055 76.0244 187.621 76.2412C187.193 76.458 186.833 76.7656 186.54 77.1641C186.253 77.5625 186.036 78.04 185.89 78.5967C185.743 79.1533 185.67 79.7715 185.67 80.4512V81.7432C185.67 82.3701 185.734 82.959 185.863 83.5098C185.998 84.0605 186.2 84.5439 186.47 84.96C186.739 85.376 187.082 85.7041 187.498 85.9443C187.914 86.1787 188.406 86.2959 188.975 86.2959C189.695 86.2959 190.27 86.1816 190.697 85.9531C191.125 85.7246 191.447 85.3965 191.664 84.9688C191.887 84.541 192.045 84.0283 192.139 83.4307ZM195.461 82.8506V82.6484C195.461 81.9629 195.561 81.3271 195.76 80.7412C195.959 80.1494 196.246 79.6367 196.621 79.2031C196.996 78.7637 197.45 78.4238 197.983 78.1836C198.517 77.9375 199.114 77.8145 199.776 77.8145C200.444 77.8145 201.045 77.9375 201.578 78.1836C202.117 78.4238 202.574 78.7637 202.949 79.2031C203.33 79.6367 203.62 80.1494 203.819 80.7412C204.019 81.3271 204.118 81.9629 204.118 82.6484V82.8506C204.118 83.5361 204.019 84.1719 203.819 84.7578C203.62 85.3438 203.33 85.8564 202.949 86.2959C202.574 86.7295 202.12 87.0693 201.587 87.3154C201.06 87.5557 200.462 87.6758 199.794 87.6758C199.126 87.6758 198.525 87.5557 197.992 87.3154C197.459 87.0693 197.002 86.7295 196.621 86.2959C196.246 85.8564 195.959 85.3438 195.76 84.7578C195.561 84.1719 195.461 83.5361 195.461 82.8506ZM197.087 82.6484V82.8506C197.087 83.3252 197.143 83.7734 197.254 84.1953C197.365 84.6113 197.532 84.9805 197.755 85.3027C197.983 85.625 198.268 85.8799 198.607 86.0674C198.947 86.249 199.343 86.3398 199.794 86.3398C200.239 86.3398 200.629 86.249 200.963 86.0674C201.303 85.8799 201.584 85.625 201.807 85.3027C202.029 84.9805 202.196 84.6113 202.308 84.1953C202.425 83.7734 202.483 83.3252 202.483 82.8506V82.6484C202.483 82.1797 202.425 81.7373 202.308 81.3213C202.196 80.8994 202.026 80.5273 201.798 80.2051C201.575 79.877 201.294 79.6191 200.954 79.4316C200.62 79.2441 200.228 79.1504 199.776 79.1504C199.331 79.1504 198.938 79.2441 198.599 79.4316C198.265 79.6191 197.983 79.877 197.755 80.2051C197.532 80.5273 197.365 80.8994 197.254 81.3213C197.143 81.7373 197.087 82.1797 197.087 82.6484ZM211.976 85.3027V77.9902H213.61V87.5H212.055L211.976 85.3027ZM212.283 83.2988L212.96 83.2812C212.96 83.9141 212.893 84.5 212.758 85.0391C212.629 85.5723 212.418 86.0352 212.125 86.4277C211.832 86.8203 211.448 87.1279 210.974 87.3506C210.499 87.5674 209.922 87.6758 209.242 87.6758C208.779 87.6758 208.354 87.6084 207.968 87.4736C207.587 87.3389 207.259 87.1309 206.983 86.8496C206.708 86.5684 206.494 86.2021 206.342 85.751C206.195 85.2998 206.122 84.7578 206.122 84.125V77.9902H207.748V84.1426C207.748 84.5703 207.795 84.9248 207.889 85.2061C207.988 85.4814 208.12 85.7012 208.284 85.8652C208.454 86.0234 208.642 86.1348 208.847 86.1992C209.058 86.2637 209.274 86.2959 209.497 86.2959C210.188 86.2959 210.736 86.1641 211.141 85.9004C211.545 85.6309 211.835 85.2705 212.011 84.8193C212.192 84.3623 212.283 83.8555 212.283 83.2988ZM217.715 79.4844V87.5H216.089V77.9902H217.671L217.715 79.4844ZM220.686 77.9375L220.677 79.4492C220.542 79.4199 220.413 79.4023 220.29 79.3965C220.173 79.3848 220.038 79.3789 219.886 79.3789C219.511 79.3789 219.18 79.4375 218.893 79.5547C218.605 79.6719 218.362 79.8359 218.163 80.0469C217.964 80.2578 217.806 80.5098 217.688 80.8027C217.577 81.0898 217.504 81.4062 217.469 81.752L217.012 82.0156C217.012 81.4414 217.067 80.9023 217.179 80.3984C217.296 79.8945 217.475 79.4492 217.715 79.0625C217.955 78.6699 218.26 78.3652 218.629 78.1484C219.004 77.9258 219.449 77.8145 219.965 77.8145C220.082 77.8145 220.217 77.8291 220.369 77.8584C220.521 77.8818 220.627 77.9082 220.686 77.9375ZM227.726 84.9775C227.726 84.7432 227.673 84.5264 227.567 84.3271C227.468 84.1221 227.26 83.9375 226.943 83.7734C226.633 83.6035 226.164 83.457 225.537 83.334C225.01 83.2227 224.532 83.0908 224.104 82.9385C223.683 82.7861 223.322 82.6016 223.023 82.3848C222.73 82.168 222.505 81.9131 222.347 81.6201C222.188 81.3271 222.109 80.9844 222.109 80.5918C222.109 80.2168 222.191 79.8623 222.355 79.5283C222.525 79.1943 222.763 78.8984 223.067 78.6406C223.378 78.3828 223.75 78.1807 224.184 78.0342C224.617 77.8877 225.101 77.8145 225.634 77.8145C226.396 77.8145 227.046 77.9492 227.585 78.2188C228.124 78.4883 228.537 78.8486 228.824 79.2998C229.111 79.7451 229.255 80.2402 229.255 80.7852H227.629C227.629 80.5215 227.55 80.2666 227.392 80.0205C227.239 79.7686 227.014 79.5605 226.715 79.3965C226.422 79.2324 226.062 79.1504 225.634 79.1504C225.183 79.1504 224.816 79.2207 224.535 79.3613C224.26 79.4961 224.058 79.6689 223.929 79.8799C223.806 80.0908 223.744 80.3135 223.744 80.5479C223.744 80.7236 223.773 80.8818 223.832 81.0225C223.896 81.1572 224.008 81.2832 224.166 81.4004C224.324 81.5117 224.547 81.6172 224.834 81.7168C225.121 81.8164 225.487 81.916 225.933 82.0156C226.712 82.1914 227.354 82.4023 227.857 82.6484C228.361 82.8945 228.736 83.1963 228.982 83.5537C229.229 83.9111 229.352 84.3447 229.352 84.8545C229.352 85.2705 229.264 85.6514 229.088 85.9971C228.918 86.3428 228.669 86.6416 228.341 86.8936C228.019 87.1396 227.632 87.333 227.181 87.4736C226.735 87.6084 226.234 87.6758 225.678 87.6758C224.84 87.6758 224.131 87.5264 223.551 87.2275C222.971 86.9287 222.531 86.542 222.232 86.0674C221.934 85.5928 221.784 85.0918 221.784 84.5645H223.419C223.442 85.0098 223.571 85.3643 223.806 85.6279C224.04 85.8857 224.327 86.0703 224.667 86.1816C225.007 86.2871 225.344 86.3398 225.678 86.3398C226.123 86.3398 226.495 86.2812 226.794 86.1641C227.099 86.0469 227.33 85.8857 227.488 85.6807C227.646 85.4756 227.726 85.2412 227.726 84.9775ZM235.434 87.6758C234.771 87.6758 234.171 87.5645 233.632 87.3418C233.099 87.1133 232.639 86.7939 232.252 86.3838C231.871 85.9736 231.578 85.4873 231.373 84.9248C231.168 84.3623 231.065 83.7471 231.065 83.0791V82.71C231.065 81.9365 231.18 81.248 231.408 80.6445C231.637 80.0352 231.947 79.5195 232.34 79.0977C232.732 78.6758 233.178 78.3564 233.676 78.1396C234.174 77.9229 234.689 77.8145 235.223 77.8145C235.902 77.8145 236.488 77.9316 236.98 78.166C237.479 78.4004 237.886 78.7285 238.202 79.1504C238.519 79.5664 238.753 80.0586 238.905 80.627C239.058 81.1895 239.134 81.8047 239.134 82.4727V83.2021H232.032V81.875H237.508V81.752C237.484 81.3301 237.396 80.9199 237.244 80.5215C237.098 80.123 236.863 79.7949 236.541 79.5371C236.219 79.2793 235.779 79.1504 235.223 79.1504C234.854 79.1504 234.514 79.2295 234.203 79.3877C233.893 79.54 233.626 79.7686 233.403 80.0732C233.181 80.3779 233.008 80.75 232.885 81.1895C232.762 81.6289 232.7 82.1357 232.7 82.71V83.0791C232.7 83.5303 232.762 83.9551 232.885 84.3535C233.014 84.7461 233.198 85.0918 233.438 85.3906C233.685 85.6895 233.98 85.9238 234.326 86.0938C234.678 86.2637 235.076 86.3486 235.521 86.3486C236.096 86.3486 236.582 86.2314 236.98 85.9971C237.379 85.7627 237.728 85.4492 238.026 85.0566L239.011 85.8389C238.806 86.1494 238.545 86.4453 238.229 86.7266C237.912 87.0078 237.522 87.2363 237.06 87.4121C236.603 87.5879 236.061 87.6758 235.434 87.6758ZM246.569 84.9775C246.569 84.7432 246.517 84.5264 246.411 84.3271C246.312 84.1221 246.104 83.9375 245.787 83.7734C245.477 83.6035 245.008 83.457 244.381 83.334C243.854 83.2227 243.376 83.0908 242.948 82.9385C242.526 82.7861 242.166 82.6016 241.867 82.3848C241.574 82.168 241.349 81.9131 241.19 81.6201C241.032 81.3271 240.953 80.9844 240.953 80.5918C240.953 80.2168 241.035 79.8623 241.199 79.5283C241.369 79.1943 241.606 78.8984 241.911 78.6406C242.222 78.3828 242.594 78.1807 243.027 78.0342C243.461 77.8877 243.944 77.8145 244.478 77.8145C245.239 77.8145 245.89 77.9492 246.429 78.2188C246.968 78.4883 247.381 78.8486 247.668 79.2998C247.955 79.7451 248.099 80.2402 248.099 80.7852H246.473C246.473 80.5215 246.394 80.2666 246.235 80.0205C246.083 79.7686 245.857 79.5605 245.559 79.3965C245.266 79.2324 244.905 79.1504 244.478 79.1504C244.026 79.1504 243.66 79.2207 243.379 79.3613C243.104 79.4961 242.901 79.6689 242.772 79.8799C242.649 80.0908 242.588 80.3135 242.588 80.5479C242.588 80.7236 242.617 80.8818 242.676 81.0225C242.74 81.1572 242.852 81.2832 243.01 81.4004C243.168 81.5117 243.391 81.6172 243.678 81.7168C243.965 81.8164 244.331 81.916 244.776 82.0156C245.556 82.1914 246.197 82.4023 246.701 82.6484C247.205 82.8945 247.58 83.1963 247.826 83.5537C248.072 83.9111 248.195 84.3447 248.195 84.8545C248.195 85.2705 248.107 85.6514 247.932 85.9971C247.762 86.3428 247.513 86.6416 247.185 86.8936C246.862 87.1396 246.476 87.333 246.024 87.4736C245.579 87.6084 245.078 87.6758 244.521 87.6758C243.684 87.6758 242.975 87.5264 242.395 87.2275C241.814 86.9287 241.375 86.542 241.076 86.0674C240.777 85.5928 240.628 85.0918 240.628 84.5645H242.263C242.286 85.0098 242.415 85.3643 242.649 85.6279C242.884 85.8857 243.171 86.0703 243.511 86.1816C243.851 86.2871 244.188 86.3398 244.521 86.3398C244.967 86.3398 245.339 86.2812 245.638 86.1641C245.942 86.0469 246.174 85.8857 246.332 85.6807C246.49 85.4756 246.569 85.2412 246.569 84.9775ZM259.779 75.8369L255.543 87.5H253.812L258.689 74.7031H259.806L259.779 75.8369ZM263.33 87.5L259.085 75.8369L259.059 74.7031H260.175L265.07 87.5H263.33ZM263.11 82.7627V84.1514H255.921V82.7627H263.11ZM268.99 86.0322L271.592 77.9902H273.253L269.834 87.5H268.744L268.99 86.0322ZM266.819 77.9902L269.5 86.0762L269.685 87.5H268.595L265.149 77.9902H266.819ZM280.284 85.874V80.9785C280.284 80.6035 280.208 80.2783 280.056 80.0029C279.909 79.7217 279.687 79.5049 279.388 79.3525C279.089 79.2002 278.72 79.124 278.28 79.124C277.87 79.124 277.51 79.1943 277.199 79.335C276.895 79.4756 276.654 79.6602 276.479 79.8887C276.309 80.1172 276.224 80.3633 276.224 80.627H274.598C274.598 80.2871 274.686 79.9502 274.861 79.6162C275.037 79.2822 275.289 78.9805 275.617 78.7109C275.951 78.4355 276.35 78.2188 276.812 78.0605C277.281 77.8965 277.803 77.8145 278.377 77.8145C279.068 77.8145 279.678 77.9316 280.205 78.166C280.738 78.4004 281.154 78.7549 281.453 79.2295C281.758 79.6982 281.91 80.2871 281.91 80.9961V85.4258C281.91 85.7422 281.937 86.0791 281.989 86.4365C282.048 86.7939 282.133 87.1016 282.244 87.3594V87.5H280.548C280.466 87.3125 280.401 87.0635 280.354 86.7529C280.308 86.4365 280.284 86.1436 280.284 85.874ZM280.565 81.7344L280.583 82.877H278.939C278.477 82.877 278.063 82.915 277.7 82.9912C277.337 83.0615 277.032 83.1699 276.786 83.3164C276.54 83.4629 276.353 83.6475 276.224 83.8701C276.095 84.0869 276.03 84.3418 276.03 84.6348C276.03 84.9336 276.098 85.2061 276.232 85.4521C276.367 85.6982 276.569 85.8945 276.839 86.041C277.114 86.1816 277.451 86.252 277.85 86.252C278.348 86.252 278.787 86.1465 279.168 85.9355C279.549 85.7246 279.851 85.4668 280.073 85.1621C280.302 84.8574 280.425 84.5615 280.442 84.2744L281.137 85.0566C281.096 85.3027 280.984 85.5752 280.803 85.874C280.621 86.1729 280.378 86.46 280.073 86.7354C279.774 87.0049 279.417 87.2305 279.001 87.4121C278.591 87.5879 278.128 87.6758 277.612 87.6758C276.968 87.6758 276.402 87.5498 275.916 87.2979C275.436 87.0459 275.061 86.709 274.791 86.2871C274.527 85.8594 274.396 85.3818 274.396 84.8545C274.396 84.3447 274.495 83.8965 274.694 83.5098C274.894 83.1172 275.181 82.792 275.556 82.5342C275.931 82.2705 276.382 82.0713 276.909 81.9365C277.437 81.8018 278.025 81.7344 278.676 81.7344H280.565ZM286.234 77.9902V87.5H284.6V77.9902H286.234ZM284.477 75.4678C284.477 75.2041 284.556 74.9814 284.714 74.7998C284.878 74.6182 285.118 74.5273 285.435 74.5273C285.745 74.5273 285.982 74.6182 286.146 74.7998C286.316 74.9814 286.401 75.2041 286.401 75.4678C286.401 75.7197 286.316 75.9365 286.146 76.1182C285.982 76.2939 285.745 76.3818 285.435 76.3818C285.118 76.3818 284.878 76.2939 284.714 76.1182C284.556 75.9365 284.477 75.7197 284.477 75.4678ZM290.611 74V87.5H288.977V74H290.611ZM298.829 85.874V80.9785C298.829 80.6035 298.753 80.2783 298.601 80.0029C298.454 79.7217 298.231 79.5049 297.933 79.3525C297.634 79.2002 297.265 79.124 296.825 79.124C296.415 79.124 296.055 79.1943 295.744 79.335C295.439 79.4756 295.199 79.6602 295.023 79.8887C294.854 80.1172 294.769 80.3633 294.769 80.627H293.143C293.143 80.2871 293.23 79.9502 293.406 79.6162C293.582 79.2822 293.834 78.9805 294.162 78.7109C294.496 78.4355 294.895 78.2188 295.357 78.0605C295.826 77.8965 296.348 77.8145 296.922 77.8145C297.613 77.8145 298.223 77.9316 298.75 78.166C299.283 78.4004 299.699 78.7549 299.998 79.2295C300.303 79.6982 300.455 80.2871 300.455 80.9961V85.4258C300.455 85.7422 300.481 86.0791 300.534 86.4365C300.593 86.7939 300.678 87.1016 300.789 87.3594V87.5H299.093C299.011 87.3125 298.946 87.0635 298.899 86.7529C298.853 86.4365 298.829 86.1436 298.829 85.874ZM299.11 81.7344L299.128 82.877H297.484C297.021 82.877 296.608 82.915 296.245 82.9912C295.882 83.0615 295.577 83.1699 295.331 83.3164C295.085 83.4629 294.897 83.6475 294.769 83.8701C294.64 84.0869 294.575 84.3418 294.575 84.6348C294.575 84.9336 294.643 85.2061 294.777 85.4521C294.912 85.6982 295.114 85.8945 295.384 86.041C295.659 86.1816 295.996 86.252 296.395 86.252C296.893 86.252 297.332 86.1465 297.713 85.9355C298.094 85.7246 298.396 85.4668 298.618 85.1621C298.847 84.8574 298.97 84.5615 298.987 84.2744L299.682 85.0566C299.641 85.3027 299.529 85.5752 299.348 85.874C299.166 86.1729 298.923 86.46 298.618 86.7354C298.319 87.0049 297.962 87.2305 297.546 87.4121C297.136 87.5879 296.673 87.6758 296.157 87.6758C295.513 87.6758 294.947 87.5498 294.461 87.2979C293.98 87.0459 293.605 86.709 293.336 86.2871C293.072 85.8594 292.94 85.3818 292.94 84.8545C292.94 84.3447 293.04 83.8965 293.239 83.5098C293.438 83.1172 293.726 82.792 294.101 82.5342C294.476 82.2705 294.927 82.0713 295.454 81.9365C295.981 81.8018 296.57 81.7344 297.221 81.7344H299.11ZM303.004 74H304.639V85.6543L304.498 87.5H303.004V74ZM311.063 82.666V82.8506C311.063 83.542 310.981 84.1836 310.817 84.7754C310.653 85.3613 310.413 85.8711 310.097 86.3047C309.78 86.7383 309.394 87.0752 308.937 87.3154C308.479 87.5557 307.955 87.6758 307.363 87.6758C306.76 87.6758 306.229 87.5732 305.772 87.3682C305.321 87.1572 304.94 86.8555 304.63 86.4629C304.319 86.0703 304.07 85.5957 303.883 85.0391C303.701 84.4824 303.575 83.8555 303.505 83.1582V82.3496C303.575 81.6465 303.701 81.0166 303.883 80.46C304.07 79.9033 304.319 79.4287 304.63 79.0361C304.94 78.6377 305.321 78.3359 305.772 78.1309C306.224 77.9199 306.748 77.8145 307.346 77.8145C307.943 77.8145 308.474 77.9316 308.937 78.166C309.399 78.3945 309.786 78.7227 310.097 79.1504C310.413 79.5781 310.653 80.0908 310.817 80.6885C310.981 81.2803 311.063 81.9395 311.063 82.666ZM309.429 82.8506V82.666C309.429 82.1914 309.385 81.7461 309.297 81.3301C309.209 80.9082 309.068 80.5391 308.875 80.2227C308.682 79.9004 308.427 79.6484 308.11 79.4668C307.794 79.2793 307.404 79.1855 306.941 79.1855C306.531 79.1855 306.174 79.2559 305.869 79.3965C305.57 79.5371 305.315 79.7275 305.104 79.9678C304.894 80.2021 304.721 80.4717 304.586 80.7764C304.457 81.0752 304.36 81.3857 304.296 81.708V83.8262C304.39 84.2363 304.542 84.6318 304.753 85.0127C304.97 85.3877 305.257 85.6953 305.614 85.9355C305.978 86.1758 306.426 86.2959 306.959 86.2959C307.398 86.2959 307.773 86.208 308.084 86.0322C308.4 85.8506 308.655 85.6016 308.849 85.2852C309.048 84.9688 309.194 84.6025 309.288 84.1865C309.382 83.7705 309.429 83.3252 309.429 82.8506ZM314.887 74V87.5H313.252V74H314.887ZM321.443 87.6758C320.781 87.6758 320.181 87.5645 319.642 87.3418C319.108 87.1133 318.648 86.7939 318.262 86.3838C317.881 85.9736 317.588 85.4873 317.383 84.9248C317.178 84.3623 317.075 83.7471 317.075 83.0791V82.71C317.075 81.9365 317.189 81.248 317.418 80.6445C317.646 80.0352 317.957 79.5195 318.35 79.0977C318.742 78.6758 319.188 78.3564 319.686 78.1396C320.184 77.9229 320.699 77.8145 321.232 77.8145C321.912 77.8145 322.498 77.9316 322.99 78.166C323.488 78.4004 323.896 78.7285 324.212 79.1504C324.528 79.5664 324.763 80.0586 324.915 80.627C325.067 81.1895 325.144 81.8047 325.144 82.4727V83.2021H318.042V81.875H323.518V81.752C323.494 81.3301 323.406 80.9199 323.254 80.5215C323.107 80.123 322.873 79.7949 322.551 79.5371C322.229 79.2793 321.789 79.1504 321.232 79.1504C320.863 79.1504 320.523 79.2295 320.213 79.3877C319.902 79.54 319.636 79.7686 319.413 80.0732C319.19 80.3779 319.018 80.75 318.895 81.1895C318.771 81.6289 318.71 82.1357 318.71 82.71V83.0791C318.71 83.5303 318.771 83.9551 318.895 84.3535C319.023 84.7461 319.208 85.0918 319.448 85.3906C319.694 85.6895 319.99 85.9238 320.336 86.0938C320.688 86.2637 321.086 86.3486 321.531 86.3486C322.105 86.3486 322.592 86.2314 322.99 85.9971C323.389 85.7627 323.737 85.4492 324.036 85.0566L325.021 85.8389C324.815 86.1494 324.555 86.4453 324.238 86.7266C323.922 87.0078 323.532 87.2363 323.069 87.4121C322.612 87.5879 322.07 87.6758 321.443 87.6758Z" fill="black"/>
</svg>
